<?xml version="1.0" standalone="no"?>
<!DOCTYPE svg PUBLIC "-//W3C//DTD SVG 1.1//EN" "http://www.w3.org/Graphics/SVG/1.1/DTD/svg11.dtd">
<svg width="400.0mm" height="404.0mm"
 viewBox="0 0 400.0 404.0"
 xmlns="http://www.w3.org/2000/svg" version="1.1"
 xmlns:xlink="http://www.w3.org/1999/xlink">
<desc>Output from Flights of Ideas SVG Sketchup Plugin</desc>

  <g id="face0" fill="none" stroke="rgb(0,0,255)" stroke-width=".01" stroke-miterlimit="4" stroke-dasharray="none" stroke-linejoin="round" stroke-linecap="round">
    <line x1="10.0" y1="394.0" x2="110.0" y2="394.0"/>
    <line stroke="rgb(0,0,255)" x1="110.0" y1="394.0" x2="110.0" y2="10.0"/>
    <line x1="110.0" y1="10.0" x2="10.0" y2="10.0"/>
    <line x1="10.0" y1="10.0" x2="10.0" y2="394.0"/>
    <line x1="20.0" y1="17.4999999999998" x2="20.6470476127562" y2="17.5851854342772"/>
    <line x1="20.6470476127562" y1="17.5851854342772" x2="21.25" y2="17.8349364905389"/>
    <line x1="21.25" y1="17.8349364905389" x2="21.7677669529664" y2="18.2322330470336"/>
    <line x1="21.7677669529664" y1="18.2322330470336" x2="22.1650635094611" y2="18.7500000000001"/>
    <line x1="22.1650635094611" y1="18.7500000000001" x2="22.4148145657227" y2="19.3529523872436"/>
    <line x1="22.4148145657227" y1="19.3529523872436" x2="22.5" y2="20.0000000000001"/>
    <line x1="22.5" y1="20.0000000000001" x2="22.4148145657226" y2="20.6470476127562"/>
    <line x1="22.4148145657226" y1="20.6470476127562" x2="22.1650635094611" y2="21.25"/>
    <line x1="22.1650635094611" y1="21.25" x2="21.7677669529664" y2="21.7677669529664"/>
    <line x1="21.7677669529664" y1="21.7677669529664" x2="21.25" y2="22.1650635094611"/>
    <line x1="21.25" y1="22.1650635094611" x2="20.6470476127563" y2="22.4148145657227"/>
    <line x1="20.6470476127563" y1="22.4148145657227" x2="20.0" y2="22.5000000000001"/>
    <line x1="20.0" y1="22.5000000000001" x2="19.3529523872437" y2="22.4148145657227"/>
    <line x1="19.3529523872437" y1="22.4148145657227" x2="18.75" y2="22.1650635094612"/>
    <line x1="18.75" y1="22.1650635094612" x2="18.2322330470337" y2="21.7677669529663"/>
    <line x1="18.2322330470337" y1="21.7677669529663" x2="17.8349364905389" y2="21.2499999999999"/>
    <line x1="17.8349364905389" y1="21.2499999999999" x2="17.5851854342774" y2="20.6470476127563"/>
    <line x1="17.5851854342774" y1="20.6470476127563" x2="17.4999999999999" y2="19.9999999999999"/>
    <line x1="17.4999999999999" y1="19.9999999999999" x2="17.5851854342773" y2="19.3529523872436"/>
    <line x1="17.5851854342773" y1="19.3529523872436" x2="17.8349364905389" y2="18.75"/>
    <line x1="17.8349364905389" y1="18.75" x2="18.2322330470337" y2="18.2322330470336"/>
    <line x1="18.2322330470337" y1="18.2322330470336" x2="18.7499999999999" y2="17.8349364905389"/>
    <line x1="18.7499999999999" y1="17.8349364905389" x2="19.3529523872437" y2="17.5851854342774"/>
    <line x1="19.3529523872437" y1="17.5851854342774" x2="20.0" y2="17.4999999999998"/>
    <line x1="40.0" y1="17.4999999999999" x2="40.6470476127563" y2="17.5851854342772"/>
    <line x1="40.6470476127563" y1="17.5851854342772" x2="41.2499999999999" y2="17.8349364905388"/>
    <line x1="41.2499999999999" y1="17.8349364905388" x2="41.7677669529664" y2="18.2322330470336"/>
    <line x1="41.7677669529664" y1="18.2322330470336" x2="42.1650635094612" y2="18.7500000000001"/>
    <line x1="42.1650635094612" y1="18.7500000000001" x2="42.4148145657227" y2="19.3529523872436"/>
    <line x1="42.4148145657227" y1="19.3529523872436" x2="42.5" y2="20.0"/>
    <line x1="42.5" y1="20.0" x2="42.4148145657227" y2="20.6470476127562"/>
    <line x1="42.4148145657227" y1="20.6470476127562" x2="42.1650635094612" y2="21.25"/>
    <line x1="42.1650635094612" y1="21.25" x2="41.7677669529664" y2="21.7677669529664"/>
    <line x1="41.7677669529664" y1="21.7677669529664" x2="41.2500000000001" y2="22.1650635094611"/>
    <line x1="41.2500000000001" y1="22.1650635094611" x2="40.6470476127563" y2="22.4148145657227"/>
    <line x1="40.6470476127563" y1="22.4148145657227" x2="40.0" y2="22.5000000000001"/>
    <line x1="40.0" y1="22.5000000000001" x2="39.3529523872438" y2="22.4148145657227"/>
    <line x1="39.3529523872438" y1="22.4148145657227" x2="38.75" y2="22.1650635094612"/>
    <line x1="38.75" y1="22.1650635094612" x2="38.2322330470337" y2="21.7677669529663"/>
    <line x1="38.2322330470337" y1="21.7677669529663" x2="37.8349364905389" y2="21.2500000000001"/>
    <line x1="37.8349364905389" y1="21.2500000000001" x2="37.5851854342773" y2="20.6470476127563"/>
    <line x1="37.5851854342773" y1="20.6470476127563" x2="37.5000000000001" y2="19.9999999999999"/>
    <line x1="37.5000000000001" y1="19.9999999999999" x2="37.5851854342773" y2="19.3529523872436"/>
    <line x1="37.5851854342773" y1="19.3529523872436" x2="37.834936490539" y2="18.75"/>
    <line x1="37.834936490539" y1="18.75" x2="38.2322330470337" y2="18.2322330470336"/>
    <line x1="38.2322330470337" y1="18.2322330470336" x2="38.75" y2="17.8349364905389"/>
    <line x1="38.75" y1="17.8349364905389" x2="39.3529523872438" y2="17.5851854342774"/>
    <line x1="39.3529523872438" y1="17.5851854342774" x2="40.0" y2="17.4999999999999"/>
    <line x1="60.0" y1="17.4999999999999" x2="60.6470476127564" y2="17.5851854342773"/>
    <line x1="60.6470476127564" y1="17.5851854342773" x2="61.2500000000001" y2="17.8349364905389"/>
    <line x1="61.2500000000001" y1="17.8349364905389" x2="61.7677669529664" y2="18.2322330470336"/>
    <line x1="61.7677669529664" y1="18.2322330470336" x2="62.1650635094611" y2="18.7500000000001"/>
    <line x1="62.1650635094611" y1="18.7500000000001" x2="62.4148145657226" y2="19.3529523872436"/>
    <line x1="62.4148145657226" y1="19.3529523872436" x2="62.5" y2="20.0"/>
    <line x1="62.5" y1="20.0" x2="62.4148145657226" y2="20.6470476127562"/>
    <line x1="62.4148145657226" y1="20.6470476127562" x2="62.1650635094611" y2="21.25"/>
    <line x1="62.1650635094611" y1="21.25" x2="61.7677669529664" y2="21.7677669529664"/>
    <line x1="61.7677669529664" y1="21.7677669529664" x2="61.2500000000001" y2="22.1650635094611"/>
    <line x1="61.2500000000001" y1="22.1650635094611" x2="60.6470476127564" y2="22.4148145657227"/>
    <line x1="60.6470476127564" y1="22.4148145657227" x2="60.0" y2="22.5000000000001"/>
    <line x1="60.0" y1="22.5000000000001" x2="59.3529523872438" y2="22.4148145657227"/>
    <line x1="59.3529523872438" y1="22.4148145657227" x2="58.7500000000001" y2="22.1650635094611"/>
    <line x1="58.7500000000001" y1="22.1650635094611" x2="58.2322330470336" y2="21.7677669529663"/>
    <line x1="58.2322330470336" y1="21.7677669529663" x2="57.8349364905389" y2="21.25"/>
    <line x1="57.8349364905389" y1="21.25" x2="57.5851854342774" y2="20.6470476127564"/>
    <line x1="57.5851854342774" y1="20.6470476127564" x2="57.5" y2="20.0"/>
    <line x1="57.5" y1="20.0" x2="57.5851854342772" y2="19.3529523872436"/>
    <line x1="57.5851854342772" y1="19.3529523872436" x2="57.834936490539" y2="18.7500000000001"/>
    <line x1="57.834936490539" y1="18.7500000000001" x2="58.2322330470336" y2="18.2322330470337"/>
    <line x1="58.2322330470336" y1="18.2322330470337" x2="58.7500000000001" y2="17.8349364905388"/>
    <line x1="58.7500000000001" y1="17.8349364905388" x2="59.3529523872438" y2="17.5851854342774"/>
    <line x1="59.3529523872438" y1="17.5851854342774" x2="60.0" y2="17.4999999999999"/>
    <line x1="80.0000000000001" y1="17.4999999999999" x2="80.6470476127564" y2="17.5851854342772"/>
    <line x1="80.6470476127564" y1="17.5851854342772" x2="81.25" y2="17.8349364905389"/>
    <line x1="81.25" y1="17.8349364905389" x2="81.7677669529663" y2="18.2322330470336"/>
    <line x1="81.7677669529663" y1="18.2322330470336" x2="82.1650635094611" y2="18.75"/>
    <line x1="82.1650635094611" y1="18.75" x2="82.4148145657227" y2="19.3529523872435"/>
    <line x1="82.4148145657227" y1="19.3529523872435" x2="82.5000000000001" y2="20.0"/>
    <line x1="82.5000000000001" y1="20.0" x2="82.4148145657227" y2="20.6470476127563"/>
    <line x1="82.4148145657227" y1="20.6470476127563" x2="82.1650635094611" y2="21.25"/>
    <line x1="82.1650635094611" y1="21.25" x2="81.7677669529666" y2="21.7677669529664"/>
    <line x1="81.7677669529666" y1="21.7677669529664" x2="81.25" y2="22.1650635094611"/>
    <line x1="81.25" y1="22.1650635094611" x2="80.6470476127564" y2="22.4148145657227"/>
    <line x1="80.6470476127564" y1="22.4148145657227" x2="80.0" y2="22.5000000000001"/>
    <line x1="80.0" y1="22.5000000000001" x2="79.3529523872437" y2="22.4148145657228"/>
    <line x1="79.3529523872437" y1="22.4148145657228" x2="78.7500000000001" y2="22.1650635094611"/>
    <line x1="78.7500000000001" y1="22.1650635094611" x2="78.2322330470338" y2="21.7677669529663"/>
    <line x1="78.2322330470338" y1="21.7677669529663" x2="77.8349364905388" y2="21.25"/>
    <line x1="77.8349364905388" y1="21.25" x2="77.5851854342774" y2="20.6470476127562"/>
    <line x1="77.5851854342774" y1="20.6470476127562" x2="77.5" y2="20.0"/>
    <line x1="77.5" y1="20.0" x2="77.5851854342774" y2="19.3529523872436"/>
    <line x1="77.5851854342774" y1="19.3529523872436" x2="77.834936490539" y2="18.75"/>
    <line x1="77.834936490539" y1="18.75" x2="78.2322330470336" y2="18.2322330470336"/>
    <line x1="78.2322330470336" y1="18.2322330470336" x2="78.7500000000001" y2="17.8349364905389"/>
    <line x1="78.7500000000001" y1="17.8349364905389" x2="79.3529523872437" y2="17.5851854342774"/>
    <line x1="79.3529523872437" y1="17.5851854342774" x2="80.0000000000001" y2="17.4999999999999"/>
    <line x1="100.0" y1="17.4999999999999" x2="100.647047612756" y2="17.5851854342772"/>
    <line x1="100.647047612756" y1="17.5851854342772" x2="101.25" y2="17.8349364905389"/>
    <line x1="101.25" y1="17.8349364905389" x2="101.767766952967" y2="18.2322330470337"/>
    <line x1="101.767766952967" y1="18.2322330470337" x2="102.165063509461" y2="18.7500000000001"/>
    <line x1="102.165063509461" y1="18.7500000000001" x2="102.414814565723" y2="19.3529523872436"/>
    <line x1="102.414814565723" y1="19.3529523872436" x2="102.5" y2="20.0"/>
    <line x1="102.5" y1="20.0" x2="102.414814565723" y2="20.6470476127563"/>
    <line x1="102.414814565723" y1="20.6470476127563" x2="102.165063509461" y2="21.25"/>
    <line x1="102.165063509461" y1="21.25" x2="101.767766952967" y2="21.7677669529664"/>
    <line x1="101.767766952967" y1="21.7677669529664" x2="101.25" y2="22.1650635094611"/>
    <line x1="101.25" y1="22.1650635094611" x2="100.647047612756" y2="22.4148145657227"/>
    <line x1="100.647047612756" y1="22.4148145657227" x2="100.0" y2="22.5000000000001"/>
    <line x1="100.0" y1="22.5000000000001" x2="99.3529523872437" y2="22.4148145657227"/>
    <line x1="99.3529523872437" y1="22.4148145657227" x2="98.75" y2="22.1650635094612"/>
    <line x1="98.75" y1="22.1650635094612" x2="98.2322330470337" y2="21.7677669529664"/>
    <line x1="98.2322330470337" y1="21.7677669529664" x2="97.8349364905388" y2="21.25"/>
    <line x1="97.8349364905388" y1="21.25" x2="97.5851854342773" y2="20.6470476127564"/>
    <line x1="97.5851854342773" y1="20.6470476127564" x2="97.5" y2="19.9999999999999"/>
    <line x1="97.5" y1="19.9999999999999" x2="97.5851854342773" y2="19.3529523872436"/>
    <line x1="97.5851854342773" y1="19.3529523872436" x2="97.834936490539" y2="18.7500000000001"/>
    <line x1="97.834936490539" y1="18.7500000000001" x2="98.2322330470337" y2="18.2322330470336"/>
    <line x1="98.2322330470337" y1="18.2322330470336" x2="98.75" y2="17.8349364905389"/>
    <line x1="98.75" y1="17.8349364905389" x2="99.3529523872437" y2="17.5851854342773"/>
    <line x1="99.3529523872437" y1="17.5851854342773" x2="100.0" y2="17.4999999999999"/>
    <line x1="20.0" y1="381.3" x2="20.6470476127563" y2="381.385185434277"/>
    <line x1="20.6470476127563" y1="381.385185434277" x2="21.25" y2="381.634936490539"/>
    <line x1="21.25" y1="381.634936490539" x2="21.7677669529664" y2="382.032233047034"/>
    <line x1="21.7677669529664" y1="382.032233047034" x2="22.1650635094611" y2="382.55"/>
    <line x1="22.1650635094611" y1="382.55" x2="22.4148145657227" y2="383.152952387244"/>
    <line x1="22.4148145657227" y1="383.152952387244" x2="22.5" y2="383.8"/>
    <line x1="22.5" y1="383.8" x2="22.4148145657226" y2="384.447047612756"/>
    <line x1="22.4148145657226" y1="384.447047612756" x2="22.1650635094611" y2="385.05"/>
    <line x1="22.1650635094611" y1="385.05" x2="21.7677669529664" y2="385.567766952966"/>
    <line x1="21.7677669529664" y1="385.567766952966" x2="21.2500000000001" y2="385.965063509461"/>
    <line x1="21.2500000000001" y1="385.965063509461" x2="20.6470476127563" y2="386.214814565723"/>
    <line x1="20.6470476127563" y1="386.214814565723" x2="20.0" y2="386.3"/>
    <line x1="20.0" y1="386.3" x2="19.3529523872437" y2="386.214814565723"/>
    <line x1="19.3529523872437" y1="386.214814565723" x2="18.75" y2="385.965063509461"/>
    <line x1="18.75" y1="385.965063509461" x2="18.2322330470336" y2="385.567766952966"/>
    <line x1="18.2322330470336" y1="385.567766952966" x2="17.8349364905389" y2="385.05"/>
    <line x1="17.8349364905389" y1="385.05" x2="17.5851854342774" y2="384.447047612756"/>
    <line x1="17.5851854342774" y1="384.447047612756" x2="17.5" y2="383.8"/>
    <line x1="17.5" y1="383.8" x2="17.5851854342773" y2="383.152952387244"/>
    <line x1="17.5851854342773" y1="383.152952387244" x2="17.8349364905389" y2="382.55"/>
    <line x1="17.8349364905389" y1="382.55" x2="18.2322330470336" y2="382.032233047034"/>
    <line x1="18.2322330470336" y1="382.032233047034" x2="18.75" y2="381.634936490539"/>
    <line x1="18.75" y1="381.634936490539" x2="19.3529523872437" y2="381.385185434277"/>
    <line x1="19.3529523872437" y1="381.385185434277" x2="20.0" y2="381.3"/>
    <line x1="40.0" y1="381.3" x2="40.6470476127563" y2="381.385185434277"/>
    <line x1="40.6470476127563" y1="381.385185434277" x2="41.2499999999999" y2="381.634936490539"/>
    <line x1="41.2499999999999" y1="381.634936490539" x2="41.7677669529664" y2="382.032233047034"/>
    <line x1="41.7677669529664" y1="382.032233047034" x2="42.165063509461" y2="382.55"/>
    <line x1="42.165063509461" y1="382.55" x2="42.4148145657229" y2="383.152952387244"/>
    <line x1="42.4148145657229" y1="383.152952387244" x2="42.5" y2="383.8"/>
    <line x1="42.5" y1="383.8" x2="42.4148145657227" y2="384.447047612756"/>
    <line x1="42.4148145657227" y1="384.447047612756" x2="42.1650635094612" y2="385.05"/>
    <line x1="42.1650635094612" y1="385.05" x2="41.7677669529667" y2="385.567766952966"/>
    <line x1="41.7677669529667" y1="385.567766952966" x2="41.2499999999999" y2="385.965063509461"/>
    <line x1="41.2499999999999" y1="385.965063509461" x2="40.6470476127563" y2="386.214814565723"/>
    <line x1="40.6470476127563" y1="386.214814565723" x2="40.0" y2="386.3"/>
    <line x1="40.0" y1="386.3" x2="39.3529523872438" y2="386.214814565723"/>
    <line x1="39.3529523872438" y1="386.214814565723" x2="38.75" y2="385.965063509461"/>
    <line x1="38.75" y1="385.965063509461" x2="38.2322330470337" y2="385.567766952966"/>
    <line x1="38.2322330470337" y1="385.567766952966" x2="37.8349364905389" y2="385.05"/>
    <line x1="37.8349364905389" y1="385.05" x2="37.5851854342774" y2="384.447047612756"/>
    <line x1="37.5851854342774" y1="384.447047612756" x2="37.5" y2="383.8"/>
    <line x1="37.5" y1="383.8" x2="37.5851854342773" y2="383.152952387244"/>
    <line x1="37.5851854342773" y1="383.152952387244" x2="37.8349364905389" y2="382.55"/>
    <line x1="37.8349364905389" y1="382.55" x2="38.2322330470337" y2="382.032233047034"/>
    <line x1="38.2322330470337" y1="382.032233047034" x2="38.75" y2="381.634936490539"/>
    <line x1="38.75" y1="381.634936490539" x2="39.3529523872438" y2="381.385185434277"/>
    <line x1="39.3529523872438" y1="381.385185434277" x2="40.0" y2="381.3"/>
    <line x1="60.0" y1="381.3" x2="60.6470476127563" y2="381.385185434277"/>
    <line x1="60.6470476127563" y1="381.385185434277" x2="61.2499999999999" y2="381.634936490539"/>
    <line x1="61.2499999999999" y1="381.634936490539" x2="61.7677669529664" y2="382.032233047034"/>
    <line x1="61.7677669529664" y1="382.032233047034" x2="62.165063509461" y2="382.55"/>
    <line x1="62.165063509461" y1="382.55" x2="62.4148145657229" y2="383.152952387244"/>
    <line x1="62.4148145657229" y1="383.152952387244" x2="62.5" y2="383.8"/>
    <line x1="62.5" y1="383.8" x2="62.4148145657226" y2="384.447047612756"/>
    <line x1="62.4148145657226" y1="384.447047612756" x2="62.1650635094611" y2="385.05"/>
    <line x1="62.1650635094611" y1="385.05" x2="61.7677669529666" y2="385.567766952966"/>
    <line x1="61.7677669529666" y1="385.567766952966" x2="61.2500000000001" y2="385.965063509461"/>
    <line x1="61.2500000000001" y1="385.965063509461" x2="60.6470476127564" y2="386.214814565723"/>
    <line x1="60.6470476127564" y1="386.214814565723" x2="60.0" y2="386.3"/>
    <line x1="60.0" y1="386.3" x2="59.3529523872438" y2="386.214814565723"/>
    <line x1="59.3529523872438" y1="386.214814565723" x2="58.7500000000001" y2="385.965063509461"/>
    <line x1="58.7500000000001" y1="385.965063509461" x2="58.2322330470336" y2="385.567766952966"/>
    <line x1="58.2322330470336" y1="385.567766952966" x2="57.8349364905389" y2="385.05"/>
    <line x1="57.8349364905389" y1="385.05" x2="57.5851854342774" y2="384.447047612756"/>
    <line x1="57.5851854342774" y1="384.447047612756" x2="57.5" y2="383.8"/>
    <line x1="57.5" y1="383.8" x2="57.5851854342774" y2="383.152952387244"/>
    <line x1="57.5851854342774" y1="383.152952387244" x2="57.8349364905389" y2="382.55"/>
    <line x1="57.8349364905389" y1="382.55" x2="58.2322330470336" y2="382.032233047034"/>
    <line x1="58.2322330470336" y1="382.032233047034" x2="58.7499999999999" y2="381.634936490539"/>
    <line x1="58.7499999999999" y1="381.634936490539" x2="59.3529523872438" y2="381.385185434277"/>
    <line x1="59.3529523872438" y1="381.385185434277" x2="60.0" y2="381.3"/>
    <line x1="80.0" y1="381.3" x2="80.6470476127564" y2="381.385185434277"/>
    <line x1="80.6470476127564" y1="381.385185434277" x2="81.25" y2="381.634936490539"/>
    <line x1="81.25" y1="381.634936490539" x2="81.7677669529663" y2="382.032233047034"/>
    <line x1="81.7677669529663" y1="382.032233047034" x2="82.1650635094611" y2="382.55"/>
    <line x1="82.1650635094611" y1="382.55" x2="82.4148145657227" y2="383.152952387244"/>
    <line x1="82.4148145657227" y1="383.152952387244" x2="82.5000000000001" y2="383.8"/>
    <line x1="82.5000000000001" y1="383.8" x2="82.4148145657226" y2="384.447047612756"/>
    <line x1="82.4148145657226" y1="384.447047612756" x2="82.1650635094611" y2="385.05"/>
    <line x1="82.1650635094611" y1="385.05" x2="81.7677669529666" y2="385.567766952966"/>
    <line x1="81.7677669529666" y1="385.567766952966" x2="81.25" y2="385.965063509461"/>
    <line x1="81.25" y1="385.965063509461" x2="80.6470476127564" y2="386.214814565723"/>
    <line x1="80.6470476127564" y1="386.214814565723" x2="80.0" y2="386.3"/>
    <line x1="80.0" y1="386.3" x2="79.3529523872437" y2="386.214814565723"/>
    <line x1="79.3529523872437" y1="386.214814565723" x2="78.7500000000001" y2="385.965063509461"/>
    <line x1="78.7500000000001" y1="385.965063509461" x2="78.2322330470338" y2="385.567766952966"/>
    <line x1="78.2322330470338" y1="385.567766952966" x2="77.8349364905388" y2="385.05"/>
    <line x1="77.8349364905388" y1="385.05" x2="77.5851854342774" y2="384.447047612756"/>
    <line x1="77.5851854342774" y1="384.447047612756" x2="77.5" y2="383.8"/>
    <line x1="77.5" y1="383.8" x2="77.5851854342774" y2="383.152952387244"/>
    <line x1="77.5851854342774" y1="383.152952387244" x2="77.8349364905388" y2="382.55"/>
    <line x1="77.8349364905388" y1="382.55" x2="78.2322330470338" y2="382.032233047034"/>
    <line x1="78.2322330470338" y1="382.032233047034" x2="78.7500000000001" y2="381.634936490539"/>
    <line x1="78.7500000000001" y1="381.634936490539" x2="79.3529523872437" y2="381.385185434277"/>
    <line x1="79.3529523872437" y1="381.385185434277" x2="80.0" y2="381.3"/>
    <line x1="100.0" y1="381.3" x2="100.647047612756" y2="381.385185434277"/>
    <line x1="100.647047612756" y1="381.385185434277" x2="101.25" y2="381.634936490539"/>
    <line x1="101.25" y1="381.634936490539" x2="101.767766952966" y2="382.032233047034"/>
    <line x1="101.767766952966" y1="382.032233047034" x2="102.165063509461" y2="382.55"/>
    <line x1="102.165063509461" y1="382.55" x2="102.414814565723" y2="383.152952387244"/>
    <line x1="102.414814565723" y1="383.152952387244" x2="102.5" y2="383.8"/>
    <line x1="102.5" y1="383.8" x2="102.414814565723" y2="384.447047612756"/>
    <line x1="102.414814565723" y1="384.447047612756" x2="102.165063509461" y2="385.05"/>
    <line x1="102.165063509461" y1="385.05" x2="101.767766952967" y2="385.567766952966"/>
    <line x1="101.767766952967" y1="385.567766952966" x2="101.25" y2="385.965063509461"/>
    <line x1="101.25" y1="385.965063509461" x2="100.647047612756" y2="386.214814565723"/>
    <line x1="100.647047612756" y1="386.214814565723" x2="100.0" y2="386.3"/>
    <line x1="100.0" y1="386.3" x2="99.3529523872437" y2="386.214814565723"/>
    <line x1="99.3529523872437" y1="386.214814565723" x2="98.75" y2="385.965063509461"/>
    <line x1="98.75" y1="385.965063509461" x2="98.2322330470337" y2="385.567766952966"/>
    <line x1="98.2322330470337" y1="385.567766952966" x2="97.8349364905388" y2="385.05"/>
    <line x1="97.8349364905388" y1="385.05" x2="97.5851854342773" y2="384.447047612756"/>
    <line x1="97.5851854342773" y1="384.447047612756" x2="97.5" y2="383.8"/>
    <line x1="97.5" y1="383.8" x2="97.5851854342773" y2="383.152952387244"/>
    <line x1="97.5851854342773" y1="383.152952387244" x2="97.834936490539" y2="382.55"/>
    <line x1="97.834936490539" y1="382.55" x2="98.2322330470337" y2="382.032233047034"/>
    <line x1="98.2322330470337" y1="382.032233047034" x2="98.75" y2="381.634936490539"/>
    <line x1="98.75" y1="381.634936490539" x2="99.3529523872437" y2="381.385185434277"/>
    <line x1="99.3529523872437" y1="381.385185434277" x2="100.0" y2="381.3"/>
  </g>
  <g id="face1" fill="none" stroke="rgb(0,0,255)" stroke-width=".01" stroke-miterlimit="4" stroke-dasharray="none" stroke-linejoin="round" stroke-linecap="round">
    <line x1="290.0" y1="10.0000000000001" x2="110.0" y2="10.0"/>
    <line x1="110.0" y1="394.0" x2="290.0" y2="394.0"/>
    <line stroke="rgb(0,0,255)" x1="290.0" y1="394.0" x2="290.0" y2="10.0000000000001"/>
    <line x1="280.0" y1="381.3" x2="280.647047612756" y2="381.385185434277"/>
    <line x1="280.647047612756" y1="381.385185434277" x2="281.25" y2="381.634936490539"/>
    <line x1="281.25" y1="381.634936490539" x2="281.767766952966" y2="382.032233047034"/>
    <line x1="281.767766952966" y1="382.032233047034" x2="282.165063509461" y2="382.55"/>
    <line x1="282.165063509461" y1="382.55" x2="282.414814565723" y2="383.152952387243"/>
    <line x1="282.414814565723" y1="383.152952387243" x2="282.5" y2="383.8"/>
    <line x1="282.5" y1="383.8" x2="282.414814565723" y2="384.447047612756"/>
    <line x1="282.414814565723" y1="384.447047612756" x2="282.165063509461" y2="385.049999999999"/>
    <line x1="282.165063509461" y1="385.049999999999" x2="281.767766952966" y2="385.567766952966"/>
    <line x1="281.767766952966" y1="385.567766952966" x2="281.25" y2="385.965063509462"/>
    <line x1="281.25" y1="385.965063509462" x2="280.647047612756" y2="386.214814565724"/>
    <line x1="280.647047612756" y1="386.214814565724" x2="280.0" y2="386.3"/>
    <line x1="280.0" y1="386.3" x2="279.352952387244" y2="386.214814565721"/>
    <line x1="279.352952387244" y1="386.214814565721" x2="278.75" y2="385.965063509461"/>
    <line x1="278.75" y1="385.965063509461" x2="278.232233047034" y2="385.567766952966"/>
    <line x1="278.232233047034" y1="385.567766952966" x2="277.834936490539" y2="385.05"/>
    <line x1="277.834936490539" y1="385.05" x2="277.585185434277" y2="384.447047612757"/>
    <line x1="277.585185434277" y1="384.447047612757" x2="277.5" y2="383.8"/>
    <line x1="277.5" y1="383.8" x2="277.585185434277" y2="383.152952387244"/>
    <line x1="277.585185434277" y1="383.152952387244" x2="277.834936490539" y2="382.549999999999"/>
    <line x1="277.834936490539" y1="382.549999999999" x2="278.232233047034" y2="382.032233047034"/>
    <line x1="278.232233047034" y1="382.032233047034" x2="278.75" y2="381.634936490538"/>
    <line x1="278.75" y1="381.634936490538" x2="279.352952387244" y2="381.385185434277"/>
    <line x1="279.352952387244" y1="381.385185434277" x2="280.0" y2="381.3"/>
    <line x1="260.0" y1="381.300000000001" x2="260.647047612757" y2="381.385185434277"/>
    <line x1="260.647047612757" y1="381.385185434277" x2="261.25" y2="381.634936490539"/>
    <line x1="261.25" y1="381.634936490539" x2="261.767766952966" y2="382.032233047034"/>
    <line x1="261.767766952966" y1="382.032233047034" x2="262.165063509461" y2="382.55"/>
    <line x1="262.165063509461" y1="382.55" x2="262.414814565723" y2="383.152952387244"/>
    <line x1="262.414814565723" y1="383.152952387244" x2="262.5" y2="383.8"/>
    <line x1="262.5" y1="383.8" x2="262.414814565723" y2="384.447047612756"/>
    <line x1="262.414814565723" y1="384.447047612756" x2="262.165063509461" y2="385.05"/>
    <line x1="262.165063509461" y1="385.05" x2="261.767766952966" y2="385.567766952965"/>
    <line x1="261.767766952966" y1="385.567766952965" x2="261.25" y2="385.96506350946"/>
    <line x1="261.25" y1="385.96506350946" x2="260.647047612757" y2="386.214814565722"/>
    <line x1="260.647047612757" y1="386.214814565722" x2="260.0" y2="386.3"/>
    <line x1="260.0" y1="386.3" x2="259.352952387244" y2="386.214814565723"/>
    <line x1="259.352952387244" y1="386.214814565723" x2="258.75" y2="385.965063509461"/>
    <line x1="258.75" y1="385.965063509461" x2="258.232233047034" y2="385.567766952967"/>
    <line x1="258.232233047034" y1="385.567766952967" x2="257.834936490539" y2="385.049999999999"/>
    <line x1="257.834936490539" y1="385.049999999999" x2="257.585185434277" y2="384.447047612756"/>
    <line x1="257.585185434277" y1="384.447047612756" x2="257.5" y2="383.800000000001"/>
    <line x1="257.5" y1="383.800000000001" x2="257.585185434277" y2="383.152952387244"/>
    <line x1="257.585185434277" y1="383.152952387244" x2="257.834936490539" y2="382.55"/>
    <line x1="257.834936490539" y1="382.55" x2="258.232233047034" y2="382.032233047034"/>
    <line x1="258.232233047034" y1="382.032233047034" x2="258.75" y2="381.634936490539"/>
    <line x1="258.75" y1="381.634936490539" x2="259.352952387244" y2="381.385185434277"/>
    <line x1="259.352952387244" y1="381.385185434277" x2="260.0" y2="381.300000000001"/>
    <line x1="240.0" y1="381.3" x2="240.647047612756" y2="381.385185434277"/>
    <line x1="240.647047612756" y1="381.385185434277" x2="241.25" y2="381.634936490539"/>
    <line x1="241.25" y1="381.634936490539" x2="241.767766952967" y2="382.032233047034"/>
    <line x1="241.767766952967" y1="382.032233047034" x2="242.165063509461" y2="382.55"/>
    <line x1="242.165063509461" y1="382.55" x2="242.414814565723" y2="383.152952387244"/>
    <line x1="242.414814565723" y1="383.152952387244" x2="242.5" y2="383.8"/>
    <line x1="242.5" y1="383.8" x2="242.414814565723" y2="384.447047612757"/>
    <line x1="242.414814565723" y1="384.447047612757" x2="242.165063509461" y2="385.05"/>
    <line x1="242.165063509461" y1="385.05" x2="241.767766952967" y2="385.567766952966"/>
    <line x1="241.767766952967" y1="385.567766952966" x2="241.25" y2="385.965063509462"/>
    <line x1="241.25" y1="385.965063509462" x2="240.647047612756" y2="386.214814565723"/>
    <line x1="240.647047612756" y1="386.214814565723" x2="240.0" y2="386.300000000001"/>
    <line x1="240.0" y1="386.300000000001" x2="239.352952387244" y2="386.214814565723"/>
    <line x1="239.352952387244" y1="386.214814565723" x2="238.75" y2="385.965063509461"/>
    <line x1="238.75" y1="385.965063509461" x2="238.232233047034" y2="385.567766952967"/>
    <line x1="238.232233047034" y1="385.567766952967" x2="237.834936490539" y2="385.05"/>
    <line x1="237.834936490539" y1="385.05" x2="237.585185434277" y2="384.447047612756"/>
    <line x1="237.585185434277" y1="384.447047612756" x2="237.5" y2="383.8"/>
    <line x1="237.5" y1="383.8" x2="237.585185434277" y2="383.152952387244"/>
    <line x1="237.585185434277" y1="383.152952387244" x2="237.834936490539" y2="382.55"/>
    <line x1="237.834936490539" y1="382.55" x2="238.232233047034" y2="382.032233047033"/>
    <line x1="238.232233047034" y1="382.032233047033" x2="238.75" y2="381.634936490539"/>
    <line x1="238.75" y1="381.634936490539" x2="239.352952387244" y2="381.385185434278"/>
    <line x1="239.352952387244" y1="381.385185434278" x2="240.0" y2="381.3"/>
    <line x1="220.0" y1="381.3" x2="220.647047612756" y2="381.385185434277"/>
    <line x1="220.647047612756" y1="381.385185434277" x2="221.25" y2="381.634936490539"/>
    <line x1="221.25" y1="381.634936490539" x2="221.767766952966" y2="382.032233047034"/>
    <line x1="221.767766952966" y1="382.032233047034" x2="222.165063509461" y2="382.55"/>
    <line x1="222.165063509461" y1="382.55" x2="222.414814565723" y2="383.152952387244"/>
    <line x1="222.414814565723" y1="383.152952387244" x2="222.5" y2="383.8"/>
    <line x1="222.5" y1="383.8" x2="222.414814565723" y2="384.447047612757"/>
    <line x1="222.414814565723" y1="384.447047612757" x2="222.165063509461" y2="385.049999999999"/>
    <line x1="222.165063509461" y1="385.049999999999" x2="221.767766952966" y2="385.567766952966"/>
    <line x1="221.767766952966" y1="385.567766952966" x2="221.25" y2="385.965063509461"/>
    <line x1="221.25" y1="385.965063509461" x2="220.647047612756" y2="386.214814565724"/>
    <line x1="220.647047612756" y1="386.214814565724" x2="220.0" y2="386.3"/>
    <line x1="220.0" y1="386.3" x2="219.352952387244" y2="386.214814565723"/>
    <line x1="219.352952387244" y1="386.214814565723" x2="218.75" y2="385.965063509461"/>
    <line x1="218.75" y1="385.965063509461" x2="218.232233047034" y2="385.567766952967"/>
    <line x1="218.232233047034" y1="385.567766952967" x2="217.834936490539" y2="385.05"/>
    <line x1="217.834936490539" y1="385.05" x2="217.585185434277" y2="384.447047612756"/>
    <line x1="217.585185434277" y1="384.447047612756" x2="217.5" y2="383.799999999999"/>
    <line x1="217.5" y1="383.799999999999" x2="217.585185434277" y2="383.152952387243"/>
    <line x1="217.585185434277" y1="383.152952387243" x2="217.834936490539" y2="382.55"/>
    <line x1="217.834936490539" y1="382.55" x2="218.232233047034" y2="382.032233047033"/>
    <line x1="218.232233047034" y1="382.032233047033" x2="218.75" y2="381.634936490539"/>
    <line x1="218.75" y1="381.634936490539" x2="219.352952387244" y2="381.385185434277"/>
    <line x1="219.352952387244" y1="381.385185434277" x2="220.0" y2="381.3"/>
    <line x1="200.0" y1="381.3" x2="200.647047612756" y2="381.385185434277"/>
    <line x1="200.647047612756" y1="381.385185434277" x2="201.25" y2="381.634936490539"/>
    <line x1="201.25" y1="381.634936490539" x2="201.767766952967" y2="382.032233047033"/>
    <line x1="201.767766952967" y1="382.032233047033" x2="202.165063509461" y2="382.55"/>
    <line x1="202.165063509461" y1="382.55" x2="202.414814565723" y2="383.152952387244"/>
    <line x1="202.414814565723" y1="383.152952387244" x2="202.5" y2="383.8"/>
    <line x1="202.5" y1="383.8" x2="202.414814565723" y2="384.447047612756"/>
    <line x1="202.414814565723" y1="384.447047612756" x2="202.165063509461" y2="385.05"/>
    <line x1="202.165063509461" y1="385.05" x2="201.767766952967" y2="385.567766952967"/>
    <line x1="201.767766952967" y1="385.567766952967" x2="201.25" y2="385.965063509462"/>
    <line x1="201.25" y1="385.965063509462" x2="200.647047612756" y2="386.214814565723"/>
    <line x1="200.647047612756" y1="386.214814565723" x2="200.0" y2="386.299999999999"/>
    <line x1="200.0" y1="386.299999999999" x2="199.352952387244" y2="386.214814565722"/>
    <line x1="199.352952387244" y1="386.214814565722" x2="198.75" y2="385.965063509461"/>
    <line x1="198.75" y1="385.965063509461" x2="198.232233047034" y2="385.567766952966"/>
    <line x1="198.232233047034" y1="385.567766952966" x2="197.834936490539" y2="385.05"/>
    <line x1="197.834936490539" y1="385.05" x2="197.585185434277" y2="384.447047612757"/>
    <line x1="197.585185434277" y1="384.447047612757" x2="197.5" y2="383.8"/>
    <line x1="197.5" y1="383.8" x2="197.585185434277" y2="383.152952387244"/>
    <line x1="197.585185434277" y1="383.152952387244" x2="197.834936490539" y2="382.55"/>
    <line x1="197.834936490539" y1="382.55" x2="198.232233047034" y2="382.032233047033"/>
    <line x1="198.232233047034" y1="382.032233047033" x2="198.75" y2="381.634936490539"/>
    <line x1="198.75" y1="381.634936490539" x2="199.352952387244" y2="381.385185434278"/>
    <line x1="199.352952387244" y1="381.385185434278" x2="200.0" y2="381.3"/>
    <line x1="180.0" y1="381.3" x2="180.647047612756" y2="381.385185434277"/>
    <line x1="180.647047612756" y1="381.385185434277" x2="181.25" y2="381.634936490539"/>
    <line x1="181.25" y1="381.634936490539" x2="181.767766952966" y2="382.032233047033"/>
    <line x1="181.767766952966" y1="382.032233047033" x2="182.165063509461" y2="382.55"/>
    <line x1="182.165063509461" y1="382.55" x2="182.414814565723" y2="383.152952387244"/>
    <line x1="182.414814565723" y1="383.152952387244" x2="182.5" y2="383.8"/>
    <line x1="182.5" y1="383.8" x2="182.414814565723" y2="384.447047612756"/>
    <line x1="182.414814565723" y1="384.447047612756" x2="182.165063509461" y2="385.05"/>
    <line x1="182.165063509461" y1="385.05" x2="181.767766952967" y2="385.567766952966"/>
    <line x1="181.767766952967" y1="385.567766952966" x2="181.25" y2="385.965063509461"/>
    <line x1="181.25" y1="385.965063509461" x2="180.647047612756" y2="386.214814565723"/>
    <line x1="180.647047612756" y1="386.214814565723" x2="180.0" y2="386.3"/>
    <line x1="180.0" y1="386.3" x2="179.352952387244" y2="386.214814565723"/>
    <line x1="179.352952387244" y1="386.214814565723" x2="178.75" y2="385.965063509461"/>
    <line x1="178.75" y1="385.965063509461" x2="178.232233047034" y2="385.567766952966"/>
    <line x1="178.232233047034" y1="385.567766952966" x2="177.834936490539" y2="385.05"/>
    <line x1="177.834936490539" y1="385.05" x2="177.585185434277" y2="384.447047612757"/>
    <line x1="177.585185434277" y1="384.447047612757" x2="177.5" y2="383.8"/>
    <line x1="177.5" y1="383.8" x2="177.585185434277" y2="383.152952387244"/>
    <line x1="177.585185434277" y1="383.152952387244" x2="177.834936490539" y2="382.550000000001"/>
    <line x1="177.834936490539" y1="382.550000000001" x2="178.232233047034" y2="382.032233047034"/>
    <line x1="178.232233047034" y1="382.032233047034" x2="178.75" y2="381.634936490539"/>
    <line x1="178.75" y1="381.634936490539" x2="179.352952387244" y2="381.385185434277"/>
    <line x1="179.352952387244" y1="381.385185434277" x2="180.0" y2="381.3"/>
    <line x1="160.0" y1="381.3" x2="160.647047612756" y2="381.385185434277"/>
    <line x1="160.647047612756" y1="381.385185434277" x2="161.25" y2="381.634936490539"/>
    <line x1="161.25" y1="381.634936490539" x2="161.767766952966" y2="382.032233047034"/>
    <line x1="161.767766952966" y1="382.032233047034" x2="162.165063509461" y2="382.55"/>
    <line x1="162.165063509461" y1="382.55" x2="162.414814565723" y2="383.152952387244"/>
    <line x1="162.414814565723" y1="383.152952387244" x2="162.5" y2="383.8"/>
    <line x1="162.5" y1="383.8" x2="162.414814565723" y2="384.447047612756"/>
    <line x1="162.414814565723" y1="384.447047612756" x2="162.165063509461" y2="385.05"/>
    <line x1="162.165063509461" y1="385.05" x2="161.767766952967" y2="385.567766952967"/>
    <line x1="161.767766952967" y1="385.567766952967" x2="161.25" y2="385.965063509461"/>
    <line x1="161.25" y1="385.965063509461" x2="160.647047612756" y2="386.214814565722"/>
    <line x1="160.647047612756" y1="386.214814565722" x2="160.0" y2="386.3"/>
    <line x1="160.0" y1="386.3" x2="159.352952387244" y2="386.214814565723"/>
    <line x1="159.352952387244" y1="386.214814565723" x2="158.75" y2="385.965063509461"/>
    <line x1="158.75" y1="385.965063509461" x2="158.232233047034" y2="385.567766952966"/>
    <line x1="158.232233047034" y1="385.567766952966" x2="157.834936490539" y2="385.05"/>
    <line x1="157.834936490539" y1="385.05" x2="157.585185434277" y2="384.447047612757"/>
    <line x1="157.585185434277" y1="384.447047612757" x2="157.5" y2="383.8"/>
    <line x1="157.5" y1="383.8" x2="157.585185434277" y2="383.152952387244"/>
    <line x1="157.585185434277" y1="383.152952387244" x2="157.834936490539" y2="382.55"/>
    <line x1="157.834936490539" y1="382.55" x2="158.232233047034" y2="382.032233047033"/>
    <line x1="158.232233047034" y1="382.032233047033" x2="158.75" y2="381.634936490539"/>
    <line x1="158.75" y1="381.634936490539" x2="159.352952387244" y2="381.385185434277"/>
    <line x1="159.352952387244" y1="381.385185434277" x2="160.0" y2="381.3"/>
    <line x1="140.0" y1="381.3" x2="140.647047612756" y2="381.385185434277"/>
    <line x1="140.647047612756" y1="381.385185434277" x2="141.25" y2="381.634936490539"/>
    <line x1="141.25" y1="381.634936490539" x2="141.767766952966" y2="382.032233047034"/>
    <line x1="141.767766952966" y1="382.032233047034" x2="142.165063509461" y2="382.55"/>
    <line x1="142.165063509461" y1="382.55" x2="142.414814565723" y2="383.152952387244"/>
    <line x1="142.414814565723" y1="383.152952387244" x2="142.5" y2="383.8"/>
    <line x1="142.5" y1="383.8" x2="142.414814565723" y2="384.447047612756"/>
    <line x1="142.414814565723" y1="384.447047612756" x2="142.165063509461" y2="385.05"/>
    <line x1="142.165063509461" y1="385.05" x2="141.767766952966" y2="385.567766952966"/>
    <line x1="141.767766952966" y1="385.567766952966" x2="141.25" y2="385.965063509461"/>
    <line x1="141.25" y1="385.965063509461" x2="140.647047612756" y2="386.214814565723"/>
    <line x1="140.647047612756" y1="386.214814565723" x2="140.0" y2="386.3"/>
    <line x1="140.0" y1="386.3" x2="139.352952387244" y2="386.214814565723"/>
    <line x1="139.352952387244" y1="386.214814565723" x2="138.75" y2="385.965063509461"/>
    <line x1="138.75" y1="385.965063509461" x2="138.232233047034" y2="385.567766952967"/>
    <line x1="138.232233047034" y1="385.567766952967" x2="137.834936490539" y2="385.05"/>
    <line x1="137.834936490539" y1="385.05" x2="137.585185434277" y2="384.447047612757"/>
    <line x1="137.585185434277" y1="384.447047612757" x2="137.5" y2="383.8"/>
    <line x1="137.5" y1="383.8" x2="137.585185434277" y2="383.152952387244"/>
    <line x1="137.585185434277" y1="383.152952387244" x2="137.834936490539" y2="382.55"/>
    <line x1="137.834936490539" y1="382.55" x2="138.232233047034" y2="382.032233047034"/>
    <line x1="138.232233047034" y1="382.032233047034" x2="138.75" y2="381.634936490539"/>
    <line x1="138.75" y1="381.634936490539" x2="139.352952387244" y2="381.385185434278"/>
    <line x1="139.352952387244" y1="381.385185434278" x2="140.0" y2="381.3"/>
    <line x1="120.0" y1="381.3" x2="120.647047612756" y2="381.385185434277"/>
    <line x1="120.647047612756" y1="381.385185434277" x2="121.25" y2="381.634936490539"/>
    <line x1="121.25" y1="381.634936490539" x2="121.767766952966" y2="382.032233047034"/>
    <line x1="121.767766952966" y1="382.032233047034" x2="122.165063509461" y2="382.55"/>
    <line x1="122.165063509461" y1="382.55" x2="122.414814565723" y2="383.152952387244"/>
    <line x1="122.414814565723" y1="383.152952387244" x2="122.5" y2="383.8"/>
    <line x1="122.5" y1="383.8" x2="122.414814565723" y2="384.447047612756"/>
    <line x1="122.414814565723" y1="384.447047612756" x2="122.165063509461" y2="385.05"/>
    <line x1="122.165063509461" y1="385.05" x2="121.767766952966" y2="385.567766952966"/>
    <line x1="121.767766952966" y1="385.567766952966" x2="121.25" y2="385.965063509461"/>
    <line x1="121.25" y1="385.965063509461" x2="120.647047612756" y2="386.214814565723"/>
    <line x1="120.647047612756" y1="386.214814565723" x2="120.0" y2="386.3"/>
    <line x1="120.0" y1="386.3" x2="119.352952387244" y2="386.214814565723"/>
    <line x1="119.352952387244" y1="386.214814565723" x2="118.75" y2="385.965063509461"/>
    <line x1="118.75" y1="385.965063509461" x2="118.232233047034" y2="385.567766952966"/>
    <line x1="118.232233047034" y1="385.567766952966" x2="117.834936490539" y2="385.05"/>
    <line x1="117.834936490539" y1="385.05" x2="117.585185434277" y2="384.447047612756"/>
    <line x1="117.585185434277" y1="384.447047612756" x2="117.5" y2="383.8"/>
    <line x1="117.5" y1="383.8" x2="117.585185434277" y2="383.152952387244"/>
    <line x1="117.585185434277" y1="383.152952387244" x2="117.834936490539" y2="382.55"/>
    <line x1="117.834936490539" y1="382.55" x2="118.232233047034" y2="382.032233047034"/>
    <line x1="118.232233047034" y1="382.032233047034" x2="118.75" y2="381.634936490539"/>
    <line x1="118.75" y1="381.634936490539" x2="119.352952387244" y2="381.385185434277"/>
    <line x1="119.352952387244" y1="381.385185434277" x2="120.0" y2="381.3"/>
    <line x1="280.0" y1="17.5" x2="280.647047612756" y2="17.5851854342773"/>
    <line x1="280.647047612756" y1="17.5851854342773" x2="281.25" y2="17.834936490539"/>
    <line x1="281.25" y1="17.834936490539" x2="281.767766952966" y2="18.2322330470337"/>
    <line x1="281.767766952966" y1="18.2322330470337" x2="282.165063509461" y2="18.75"/>
    <line x1="282.165063509461" y1="18.75" x2="282.414814565723" y2="19.3529523872436"/>
    <line x1="282.414814565723" y1="19.3529523872436" x2="282.5" y2="20.0"/>
    <line x1="282.5" y1="20.0" x2="282.414814565723" y2="20.6470476127562"/>
    <line x1="282.414814565723" y1="20.6470476127562" x2="282.165063509461" y2="21.2500000000001"/>
    <line x1="282.165063509461" y1="21.2500000000001" x2="281.767766952966" y2="21.7677669529664"/>
    <line x1="281.767766952966" y1="21.7677669529664" x2="281.25" y2="22.1650635094611"/>
    <line x1="281.25" y1="22.1650635094611" x2="280.647047612756" y2="22.4148145657227"/>
    <line x1="280.647047612756" y1="22.4148145657227" x2="280.0" y2="22.5000000000001"/>
    <line x1="280.0" y1="22.5000000000001" x2="279.352952387244" y2="22.4148145657228"/>
    <line x1="279.352952387244" y1="22.4148145657228" x2="278.75" y2="22.1650635094612"/>
    <line x1="278.75" y1="22.1650635094612" x2="278.232233047034" y2="21.7677669529664"/>
    <line x1="278.232233047034" y1="21.7677669529664" x2="277.834936490539" y2="21.2500000000001"/>
    <line x1="277.834936490539" y1="21.2500000000001" x2="277.585185434277" y2="20.6470476127562"/>
    <line x1="277.585185434277" y1="20.6470476127562" x2="277.5" y2="20.0"/>
    <line x1="277.5" y1="20.0" x2="277.585185434277" y2="19.3529523872436"/>
    <line x1="277.585185434277" y1="19.3529523872436" x2="277.834936490539" y2="18.7500000000001"/>
    <line x1="277.834936490539" y1="18.7500000000001" x2="278.232233047034" y2="18.2322330470336"/>
    <line x1="278.232233047034" y1="18.2322330470336" x2="278.75" y2="17.8349364905388"/>
    <line x1="278.75" y1="17.8349364905388" x2="279.352952387244" y2="17.5851854342773"/>
    <line x1="279.352952387244" y1="17.5851854342773" x2="280.0" y2="17.5"/>
    <line x1="260.0" y1="17.5" x2="260.647047612756" y2="17.5851854342773"/>
    <line x1="260.647047612756" y1="17.5851854342773" x2="261.25" y2="17.834936490539"/>
    <line x1="261.25" y1="17.834936490539" x2="261.767766952966" y2="18.2322330470337"/>
    <line x1="261.767766952966" y1="18.2322330470337" x2="262.165063509461" y2="18.7500000000001"/>
    <line x1="262.165063509461" y1="18.7500000000001" x2="262.414814565723" y2="19.3529523872435"/>
    <line x1="262.414814565723" y1="19.3529523872435" x2="262.5" y2="20.0"/>
    <line x1="262.5" y1="20.0" x2="262.414814565723" y2="20.6470476127563"/>
    <line x1="262.414814565723" y1="20.6470476127563" x2="262.165063509461" y2="21.2499999999999"/>
    <line x1="262.165063509461" y1="21.2499999999999" x2="261.767766952966" y2="21.7677669529664"/>
    <line x1="261.767766952966" y1="21.7677669529664" x2="261.25" y2="22.1650635094611"/>
    <line x1="261.25" y1="22.1650635094611" x2="260.647047612757" y2="22.4148145657228"/>
    <line x1="260.647047612757" y1="22.4148145657228" x2="260.0" y2="22.5000000000001"/>
    <line x1="260.0" y1="22.5000000000001" x2="259.352952387244" y2="22.4148145657227"/>
    <line x1="259.352952387244" y1="22.4148145657227" x2="258.75" y2="22.1650635094612"/>
    <line x1="258.75" y1="22.1650635094612" x2="258.232233047034" y2="21.7677669529664"/>
    <line x1="258.232233047034" y1="21.7677669529664" x2="257.834936490539" y2="21.2499999999999"/>
    <line x1="257.834936490539" y1="21.2499999999999" x2="257.585185434277" y2="20.6470476127562"/>
    <line x1="257.585185434277" y1="20.6470476127562" x2="257.5" y2="19.9999999999999"/>
    <line x1="257.5" y1="19.9999999999999" x2="257.585185434277" y2="19.3529523872435"/>
    <line x1="257.585185434277" y1="19.3529523872435" x2="257.834936490539" y2="18.75"/>
    <line x1="257.834936490539" y1="18.75" x2="258.232233047034" y2="18.2322330470336"/>
    <line x1="258.232233047034" y1="18.2322330470336" x2="258.75" y2="17.8349364905388"/>
    <line x1="258.75" y1="17.8349364905388" x2="259.352952387244" y2="17.5851854342773"/>
    <line x1="259.352952387244" y1="17.5851854342773" x2="260.0" y2="17.5"/>
    <line x1="240.0" y1="17.4999999999999" x2="240.647047612756" y2="17.5851854342773"/>
    <line x1="240.647047612756" y1="17.5851854342773" x2="241.25" y2="17.8349364905389"/>
    <line x1="241.25" y1="17.8349364905389" x2="241.767766952966" y2="18.2322330470338"/>
    <line x1="241.767766952966" y1="18.2322330470338" x2="242.165063509461" y2="18.75"/>
    <line x1="242.165063509461" y1="18.75" x2="242.414814565723" y2="19.3529523872436"/>
    <line x1="242.414814565723" y1="19.3529523872436" x2="242.5" y2="20.0"/>
    <line x1="242.5" y1="20.0" x2="242.414814565723" y2="20.6470476127564"/>
    <line x1="242.414814565723" y1="20.6470476127564" x2="242.165063509461" y2="21.2500000000001"/>
    <line x1="242.165063509461" y1="21.2500000000001" x2="241.767766952966" y2="21.7677669529664"/>
    <line x1="241.767766952966" y1="21.7677669529664" x2="241.25" y2="22.1650635094611"/>
    <line x1="241.25" y1="22.1650635094611" x2="240.647047612756" y2="22.4148145657228"/>
    <line x1="240.647047612756" y1="22.4148145657228" x2="240.0" y2="22.5000000000001"/>
    <line x1="240.0" y1="22.5000000000001" x2="239.352952387244" y2="22.4148145657227"/>
    <line x1="239.352952387244" y1="22.4148145657227" x2="238.75" y2="22.1650635094612"/>
    <line x1="238.75" y1="22.1650635094612" x2="238.232233047034" y2="21.7677669529664"/>
    <line x1="238.232233047034" y1="21.7677669529664" x2="237.834936490539" y2="21.25"/>
    <line x1="237.834936490539" y1="21.25" x2="237.585185434277" y2="20.6470476127563"/>
    <line x1="237.585185434277" y1="20.6470476127563" x2="237.5" y2="19.9999999999999"/>
    <line x1="237.5" y1="19.9999999999999" x2="237.585185434277" y2="19.3529523872436"/>
    <line x1="237.585185434277" y1="19.3529523872436" x2="237.834936490539" y2="18.7500000000001"/>
    <line x1="237.834936490539" y1="18.7500000000001" x2="238.232233047034" y2="18.2322330470335"/>
    <line x1="238.232233047034" y1="18.2322330470335" x2="238.75" y2="17.8349364905389"/>
    <line x1="238.75" y1="17.8349364905389" x2="239.352952387244" y2="17.5851854342773"/>
    <line x1="239.352952387244" y1="17.5851854342773" x2="240.0" y2="17.4999999999999"/>
    <line x1="220.0" y1="17.4999999999999" x2="220.647047612756" y2="17.5851854342773"/>
    <line x1="220.647047612756" y1="17.5851854342773" x2="221.25" y2="17.834936490539"/>
    <line x1="221.25" y1="17.834936490539" x2="221.767766952966" y2="18.2322330470338"/>
    <line x1="221.767766952966" y1="18.2322330470338" x2="222.165063509461" y2="18.7500000000001"/>
    <line x1="222.165063509461" y1="18.7500000000001" x2="222.414814565723" y2="19.3529523872435"/>
    <line x1="222.414814565723" y1="19.3529523872435" x2="222.5" y2="20.0000000000001"/>
    <line x1="222.5" y1="20.0000000000001" x2="222.414814565723" y2="20.6470476127562"/>
    <line x1="222.414814565723" y1="20.6470476127562" x2="222.165063509461" y2="21.25"/>
    <line x1="222.165063509461" y1="21.25" x2="221.767766952966" y2="21.7677669529664"/>
    <line x1="221.767766952966" y1="21.7677669529664" x2="221.25" y2="22.1650635094611"/>
    <line x1="221.25" y1="22.1650635094611" x2="220.647047612756" y2="22.4148145657229"/>
    <line x1="220.647047612756" y1="22.4148145657229" x2="220.0" y2="22.5000000000001"/>
    <line x1="220.0" y1="22.5000000000001" x2="219.352952387244" y2="22.4148145657227"/>
    <line x1="219.352952387244" y1="22.4148145657227" x2="218.75" y2="22.1650635094612"/>
    <line x1="218.75" y1="22.1650635094612" x2="218.232233047034" y2="21.7677669529664"/>
    <line x1="218.232233047034" y1="21.7677669529664" x2="217.834936490539" y2="21.2500000000001"/>
    <line x1="217.834936490539" y1="21.2500000000001" x2="217.585185434277" y2="20.6470476127562"/>
    <line x1="217.585185434277" y1="20.6470476127562" x2="217.5" y2="19.9999999999999"/>
    <line x1="217.5" y1="19.9999999999999" x2="217.585185434277" y2="19.3529523872435"/>
    <line x1="217.585185434277" y1="19.3529523872435" x2="217.834936490539" y2="18.7500000000001"/>
    <line x1="217.834936490539" y1="18.7500000000001" x2="218.232233047034" y2="18.2322330470337"/>
    <line x1="218.232233047034" y1="18.2322330470337" x2="218.75" y2="17.8349364905388"/>
    <line x1="218.75" y1="17.8349364905388" x2="219.352952387244" y2="17.5851854342773"/>
    <line x1="219.352952387244" y1="17.5851854342773" x2="220.0" y2="17.4999999999999"/>
    <line x1="200.0" y1="17.4999999999999" x2="200.647047612756" y2="17.5851854342773"/>
    <line x1="200.647047612756" y1="17.5851854342773" x2="201.25" y2="17.834936490539"/>
    <line x1="201.25" y1="17.834936490539" x2="201.767766952967" y2="18.2322330470337"/>
    <line x1="201.767766952967" y1="18.2322330470337" x2="202.165063509461" y2="18.7499999999999"/>
    <line x1="202.165063509461" y1="18.7499999999999" x2="202.414814565723" y2="19.3529523872435"/>
    <line x1="202.414814565723" y1="19.3529523872435" x2="202.5" y2="19.9999999999999"/>
    <line x1="202.5" y1="19.9999999999999" x2="202.414814565723" y2="20.6470476127563"/>
    <line x1="202.414814565723" y1="20.6470476127563" x2="202.165063509461" y2="21.2499999999999"/>
    <line x1="202.165063509461" y1="21.2499999999999" x2="201.767766952967" y2="21.7677669529664"/>
    <line x1="201.767766952967" y1="21.7677669529664" x2="201.25" y2="22.1650635094612"/>
    <line x1="201.25" y1="22.1650635094612" x2="200.647047612756" y2="22.4148145657227"/>
    <line x1="200.647047612756" y1="22.4148145657227" x2="200.0" y2="22.5000000000001"/>
    <line x1="200.0" y1="22.5000000000001" x2="199.352952387244" y2="22.4148145657227"/>
    <line x1="199.352952387244" y1="22.4148145657227" x2="198.75" y2="22.1650635094612"/>
    <line x1="198.75" y1="22.1650635094612" x2="198.232233047034" y2="21.7677669529664"/>
    <line x1="198.232233047034" y1="21.7677669529664" x2="197.834936490539" y2="21.25"/>
    <line x1="197.834936490539" y1="21.25" x2="197.585185434277" y2="20.6470476127564"/>
    <line x1="197.585185434277" y1="20.6470476127564" x2="197.5" y2="19.9999999999999"/>
    <line x1="197.5" y1="19.9999999999999" x2="197.585185434277" y2="19.3529523872436"/>
    <line x1="197.585185434277" y1="19.3529523872436" x2="197.834936490539" y2="18.7500000000001"/>
    <line x1="197.834936490539" y1="18.7500000000001" x2="198.232233047034" y2="18.2322330470336"/>
    <line x1="198.232233047034" y1="18.2322330470336" x2="198.75" y2="17.8349364905388"/>
    <line x1="198.75" y1="17.8349364905388" x2="199.352952387244" y2="17.5851854342773"/>
    <line x1="199.352952387244" y1="17.5851854342773" x2="200.0" y2="17.4999999999999"/>
    <line x1="180.0" y1="17.4999999999998" x2="180.647047612756" y2="17.5851854342772"/>
    <line x1="180.647047612756" y1="17.5851854342772" x2="181.25" y2="17.834936490539"/>
    <line x1="181.25" y1="17.834936490539" x2="181.767766952967" y2="18.2322330470336"/>
    <line x1="181.767766952967" y1="18.2322330470336" x2="182.165063509461" y2="18.7500000000001"/>
    <line x1="182.165063509461" y1="18.7500000000001" x2="182.414814565723" y2="19.3529523872437"/>
    <line x1="182.414814565723" y1="19.3529523872437" x2="182.5" y2="20.0"/>
    <line x1="182.5" y1="20.0" x2="182.414814565723" y2="20.6470476127562"/>
    <line x1="182.414814565723" y1="20.6470476127562" x2="182.165063509461" y2="21.2500000000001"/>
    <line x1="182.165063509461" y1="21.2500000000001" x2="181.767766952966" y2="21.7677669529664"/>
    <line x1="181.767766952966" y1="21.7677669529664" x2="181.25" y2="22.1650635094611"/>
    <line x1="181.25" y1="22.1650635094611" x2="180.647047612756" y2="22.4148145657228"/>
    <line x1="180.647047612756" y1="22.4148145657228" x2="180.0" y2="22.5000000000001"/>
    <line x1="180.0" y1="22.5000000000001" x2="179.352952387244" y2="22.4148145657227"/>
    <line x1="179.352952387244" y1="22.4148145657227" x2="178.75" y2="22.1650635094613"/>
    <line x1="178.75" y1="22.1650635094613" x2="178.232233047034" y2="21.7677669529664"/>
    <line x1="178.232233047034" y1="21.7677669529664" x2="177.834936490539" y2="21.2500000000001"/>
    <line x1="177.834936490539" y1="21.2500000000001" x2="177.585185434277" y2="20.6470476127563"/>
    <line x1="177.585185434277" y1="20.6470476127563" x2="177.5" y2="19.9999999999999"/>
    <line x1="177.5" y1="19.9999999999999" x2="177.585185434277" y2="19.3529523872435"/>
    <line x1="177.585185434277" y1="19.3529523872435" x2="177.834936490539" y2="18.7500000000001"/>
    <line x1="177.834936490539" y1="18.7500000000001" x2="178.232233047034" y2="18.2322330470336"/>
    <line x1="178.232233047034" y1="18.2322330470336" x2="178.75" y2="17.8349364905388"/>
    <line x1="178.75" y1="17.8349364905388" x2="179.352952387244" y2="17.5851854342774"/>
    <line x1="179.352952387244" y1="17.5851854342774" x2="180.0" y2="17.4999999999998"/>
    <line x1="160.0" y1="17.4999999999998" x2="160.647047612756" y2="17.5851854342772"/>
    <line x1="160.647047612756" y1="17.5851854342772" x2="161.25" y2="17.8349364905389"/>
    <line x1="161.25" y1="17.8349364905389" x2="161.767766952966" y2="18.2322330470336"/>
    <line x1="161.767766952966" y1="18.2322330470336" x2="162.165063509461" y2="18.75"/>
    <line x1="162.165063509461" y1="18.75" x2="162.414814565723" y2="19.3529523872435"/>
    <line x1="162.414814565723" y1="19.3529523872435" x2="162.5" y2="19.9999999999999"/>
    <line x1="162.5" y1="19.9999999999999" x2="162.414814565723" y2="20.6470476127562"/>
    <line x1="162.414814565723" y1="20.6470476127562" x2="162.165063509461" y2="21.2500000000001"/>
    <line x1="162.165063509461" y1="21.2500000000001" x2="161.767766952966" y2="21.7677669529664"/>
    <line x1="161.767766952966" y1="21.7677669529664" x2="161.25" y2="22.1650635094611"/>
    <line x1="161.25" y1="22.1650635094611" x2="160.647047612756" y2="22.4148145657228"/>
    <line x1="160.647047612756" y1="22.4148145657228" x2="160.0" y2="22.5000000000001"/>
    <line x1="160.0" y1="22.5000000000001" x2="159.352952387244" y2="22.4148145657228"/>
    <line x1="159.352952387244" y1="22.4148145657228" x2="158.75" y2="22.1650635094612"/>
    <line x1="158.75" y1="22.1650635094612" x2="158.232233047034" y2="21.7677669529663"/>
    <line x1="158.232233047034" y1="21.7677669529663" x2="157.834936490539" y2="21.2500000000001"/>
    <line x1="157.834936490539" y1="21.2500000000001" x2="157.585185434277" y2="20.6470476127564"/>
    <line x1="157.585185434277" y1="20.6470476127564" x2="157.5" y2="20.0"/>
    <line x1="157.5" y1="20.0" x2="157.585185434277" y2="19.3529523872436"/>
    <line x1="157.585185434277" y1="19.3529523872436" x2="157.834936490539" y2="18.7500000000001"/>
    <line x1="157.834936490539" y1="18.7500000000001" x2="158.232233047034" y2="18.2322330470336"/>
    <line x1="158.232233047034" y1="18.2322330470336" x2="158.75" y2="17.8349364905389"/>
    <line x1="158.75" y1="17.8349364905389" x2="159.352952387244" y2="17.5851854342774"/>
    <line x1="159.352952387244" y1="17.5851854342774" x2="160.0" y2="17.4999999999998"/>
    <line x1="140.0" y1="17.4999999999999" x2="140.647047612756" y2="17.5851854342772"/>
    <line x1="140.647047612756" y1="17.5851854342772" x2="141.25" y2="17.8349364905389"/>
    <line x1="141.25" y1="17.8349364905389" x2="141.767766952966" y2="18.2322330470336"/>
    <line x1="141.767766952966" y1="18.2322330470336" x2="142.165063509461" y2="18.7500000000001"/>
    <line x1="142.165063509461" y1="18.7500000000001" x2="142.414814565723" y2="19.3529523872436"/>
    <line x1="142.414814565723" y1="19.3529523872436" x2="142.5" y2="20.0"/>
    <line x1="142.5" y1="20.0" x2="142.414814565723" y2="20.6470476127562"/>
    <line x1="142.414814565723" y1="20.6470476127562" x2="142.165063509461" y2="21.2499999999999"/>
    <line x1="142.165063509461" y1="21.2499999999999" x2="141.767766952966" y2="21.7677669529664"/>
    <line x1="141.767766952966" y1="21.7677669529664" x2="141.25" y2="22.1650635094611"/>
    <line x1="141.25" y1="22.1650635094611" x2="140.647047612756" y2="22.4148145657228"/>
    <line x1="140.647047612756" y1="22.4148145657228" x2="140.0" y2="22.5000000000001"/>
    <line x1="140.0" y1="22.5000000000001" x2="139.352952387244" y2="22.4148145657227"/>
    <line x1="139.352952387244" y1="22.4148145657227" x2="138.75" y2="22.1650635094611"/>
    <line x1="138.75" y1="22.1650635094611" x2="138.232233047034" y2="21.7677669529664"/>
    <line x1="138.232233047034" y1="21.7677669529664" x2="137.834936490539" y2="21.25"/>
    <line x1="137.834936490539" y1="21.25" x2="137.585185434277" y2="20.6470476127562"/>
    <line x1="137.585185434277" y1="20.6470476127562" x2="137.5" y2="20.0"/>
    <line x1="137.5" y1="20.0" x2="137.585185434277" y2="19.3529523872436"/>
    <line x1="137.585185434277" y1="19.3529523872436" x2="137.834936490539" y2="18.7500000000001"/>
    <line x1="137.834936490539" y1="18.7500000000001" x2="138.232233047034" y2="18.2322330470336"/>
    <line x1="138.232233047034" y1="18.2322330470336" x2="138.75" y2="17.8349364905388"/>
    <line x1="138.75" y1="17.8349364905388" x2="139.352952387244" y2="17.5851854342774"/>
    <line x1="139.352952387244" y1="17.5851854342774" x2="140.0" y2="17.4999999999999"/>
    <line x1="120.0" y1="17.4999999999999" x2="120.647047612756" y2="17.5851854342772"/>
    <line x1="120.647047612756" y1="17.5851854342772" x2="121.25" y2="17.8349364905389"/>
    <line x1="121.25" y1="17.8349364905389" x2="121.767766952966" y2="18.2322330470336"/>
    <line x1="121.767766952966" y1="18.2322330470336" x2="122.165063509461" y2="18.7500000000001"/>
    <line x1="122.165063509461" y1="18.7500000000001" x2="122.414814565723" y2="19.3529523872436"/>
    <line x1="122.414814565723" y1="19.3529523872436" x2="122.5" y2="20.0"/>
    <line x1="122.5" y1="20.0" x2="122.414814565723" y2="20.6470476127562"/>
    <line x1="122.414814565723" y1="20.6470476127562" x2="122.165063509461" y2="21.25"/>
    <line x1="122.165063509461" y1="21.25" x2="121.767766952966" y2="21.7677669529664"/>
    <line x1="121.767766952966" y1="21.7677669529664" x2="121.25" y2="22.1650635094611"/>
    <line x1="121.25" y1="22.1650635094611" x2="120.647047612756" y2="22.4148145657227"/>
    <line x1="120.647047612756" y1="22.4148145657227" x2="120.0" y2="22.5000000000001"/>
    <line x1="120.0" y1="22.5000000000001" x2="119.352952387244" y2="22.4148145657227"/>
    <line x1="119.352952387244" y1="22.4148145657227" x2="118.75" y2="22.1650635094611"/>
    <line x1="118.75" y1="22.1650635094611" x2="118.232233047034" y2="21.7677669529663"/>
    <line x1="118.232233047034" y1="21.7677669529663" x2="117.834936490539" y2="21.25"/>
    <line x1="117.834936490539" y1="21.25" x2="117.585185434277" y2="20.6470476127562"/>
    <line x1="117.585185434277" y1="20.6470476127562" x2="117.5" y2="19.9999999999999"/>
    <line x1="117.5" y1="19.9999999999999" x2="117.585185434277" y2="19.3529523872436"/>
    <line x1="117.585185434277" y1="19.3529523872436" x2="117.834936490539" y2="18.75"/>
    <line x1="117.834936490539" y1="18.75" x2="118.232233047034" y2="18.2322330470336"/>
    <line x1="118.232233047034" y1="18.2322330470336" x2="118.75" y2="17.8349364905389"/>
    <line x1="118.75" y1="17.8349364905389" x2="119.352952387244" y2="17.5851854342773"/>
    <line x1="119.352952387244" y1="17.5851854342773" x2="120.0" y2="17.4999999999999"/>
  </g>
  <g id="face2" fill="none" stroke="rgb(0,0,255)" stroke-width=".01" stroke-miterlimit="4" stroke-dasharray="none" stroke-linejoin="round" stroke-linecap="round">
    <line x1="390.0" y1="10.0000000000001" x2="290.0" y2="10.0000000000001"/>
    <line x1="290.0" y1="394.0" x2="390.0" y2="394.0"/>
    <line x1="390.0" y1="394.0" x2="390.0" y2="10.0000000000001"/>
    <line x1="380.0" y1="381.300000000001" x2="380.647047612756" y2="381.385185434278"/>
    <line x1="380.647047612756" y1="381.385185434278" x2="381.25" y2="381.63493649054"/>
    <line x1="381.25" y1="381.63493649054" x2="381.767766952966" y2="382.032233047032"/>
    <line x1="381.767766952966" y1="382.032233047032" x2="382.165063509461" y2="382.549999999999"/>
    <line x1="382.165063509461" y1="382.549999999999" x2="382.414814565723" y2="383.152952387243"/>
    <line x1="382.414814565723" y1="383.152952387243" x2="382.5" y2="383.800000000002"/>
    <line x1="382.5" y1="383.800000000002" x2="382.414814565723" y2="384.447047612756"/>
    <line x1="382.414814565723" y1="384.447047612756" x2="382.165063509461" y2="385.05"/>
    <line x1="382.165063509461" y1="385.05" x2="381.767766952966" y2="385.567766952968"/>
    <line x1="381.767766952966" y1="385.567766952968" x2="381.25" y2="385.965063509461"/>
    <line x1="381.25" y1="385.965063509461" x2="380.647047612756" y2="386.214814565721"/>
    <line x1="380.647047612756" y1="386.214814565721" x2="380.0" y2="386.3"/>
    <line x1="380.0" y1="386.3" x2="379.352952387244" y2="386.214814565721"/>
    <line x1="379.352952387244" y1="386.214814565721" x2="378.75" y2="385.965063509461"/>
    <line x1="378.75" y1="385.965063509461" x2="378.232233047034" y2="385.567766952965"/>
    <line x1="378.232233047034" y1="385.567766952965" x2="377.834936490539" y2="385.050000000002"/>
    <line x1="377.834936490539" y1="385.050000000002" x2="377.585185434277" y2="384.447047612758"/>
    <line x1="377.585185434277" y1="384.447047612758" x2="377.5" y2="383.8"/>
    <line x1="377.5" y1="383.8" x2="377.585185434277" y2="383.152952387243"/>
    <line x1="377.585185434277" y1="383.152952387243" x2="377.834936490539" y2="382.550000000001"/>
    <line x1="377.834936490539" y1="382.550000000001" x2="378.232233047034" y2="382.032233047033"/>
    <line x1="378.232233047034" y1="382.032233047033" x2="378.75" y2="381.634936490539"/>
    <line x1="378.75" y1="381.634936490539" x2="379.352952387244" y2="381.385185434278"/>
    <line x1="379.352952387244" y1="381.385185434278" x2="380.0" y2="381.300000000001"/>
    <line x1="360.0" y1="381.300000000001" x2="360.647047612757" y2="381.385185434279"/>
    <line x1="360.647047612757" y1="381.385185434279" x2="361.25" y2="381.634936490538"/>
    <line x1="361.25" y1="381.634936490538" x2="361.767766952967" y2="382.032233047033"/>
    <line x1="361.767766952967" y1="382.032233047033" x2="362.165063509461" y2="382.55"/>
    <line x1="362.165063509461" y1="382.55" x2="362.414814565723" y2="383.152952387244"/>
    <line x1="362.414814565723" y1="383.152952387244" x2="362.5" y2="383.8"/>
    <line x1="362.5" y1="383.8" x2="362.414814565723" y2="384.447047612755"/>
    <line x1="362.414814565723" y1="384.447047612755" x2="362.165063509461" y2="385.050000000001"/>
    <line x1="362.165063509461" y1="385.050000000001" x2="361.767766952966" y2="385.567766952964"/>
    <line x1="361.767766952966" y1="385.567766952964" x2="361.25" y2="385.965063509462"/>
    <line x1="361.25" y1="385.965063509462" x2="360.647047612757" y2="386.214814565723"/>
    <line x1="360.647047612757" y1="386.214814565723" x2="360.0" y2="386.300000000001"/>
    <line x1="360.0" y1="386.300000000001" x2="359.352952387244" y2="386.214814565724"/>
    <line x1="359.352952387244" y1="386.214814565724" x2="358.75" y2="385.965063509461"/>
    <line x1="358.75" y1="385.965063509461" x2="358.232233047034" y2="385.567766952966"/>
    <line x1="358.232233047034" y1="385.567766952966" x2="357.834936490539" y2="385.050000000002"/>
    <line x1="357.834936490539" y1="385.050000000002" x2="357.585185434277" y2="384.447047612758"/>
    <line x1="357.585185434277" y1="384.447047612758" x2="357.5" y2="383.799999999999"/>
    <line x1="357.5" y1="383.799999999999" x2="357.585185434277" y2="383.152952387244"/>
    <line x1="357.585185434277" y1="383.152952387244" x2="357.834936490539" y2="382.549999999999"/>
    <line x1="357.834936490539" y1="382.549999999999" x2="358.232233047034" y2="382.032233047033"/>
    <line x1="358.232233047034" y1="382.032233047033" x2="358.75" y2="381.634936490538"/>
    <line x1="358.75" y1="381.634936490538" x2="359.352952387244" y2="381.385185434278"/>
    <line x1="359.352952387244" y1="381.385185434278" x2="360.0" y2="381.300000000001"/>
    <line x1="340.0" y1="381.3" x2="340.647047612756" y2="381.385185434277"/>
    <line x1="340.647047612756" y1="381.385185434277" x2="341.25" y2="381.634936490538"/>
    <line x1="341.25" y1="381.634936490538" x2="341.767766952966" y2="382.032233047034"/>
    <line x1="341.767766952966" y1="382.032233047034" x2="342.165063509461" y2="382.550000000001"/>
    <line x1="342.165063509461" y1="382.550000000001" x2="342.414814565723" y2="383.152952387245"/>
    <line x1="342.414814565723" y1="383.152952387245" x2="342.5" y2="383.799999999999"/>
    <line x1="342.5" y1="383.799999999999" x2="342.414814565723" y2="384.447047612755"/>
    <line x1="342.414814565723" y1="384.447047612755" x2="342.165063509461" y2="385.050000000001"/>
    <line x1="342.165063509461" y1="385.050000000001" x2="341.767766952966" y2="385.567766952965"/>
    <line x1="341.767766952966" y1="385.567766952965" x2="341.25" y2="385.965063509461"/>
    <line x1="341.25" y1="385.965063509461" x2="340.647047612756" y2="386.214814565724"/>
    <line x1="340.647047612756" y1="386.214814565724" x2="340.0" y2="386.300000000001"/>
    <line x1="340.0" y1="386.300000000001" x2="339.352952387244" y2="386.214814565723"/>
    <line x1="339.352952387244" y1="386.214814565723" x2="338.75" y2="385.965063509462"/>
    <line x1="338.75" y1="385.965063509462" x2="338.232233047034" y2="385.567766952966"/>
    <line x1="338.232233047034" y1="385.567766952966" x2="337.834936490539" y2="385.049999999999"/>
    <line x1="337.834936490539" y1="385.049999999999" x2="337.585185434277" y2="384.447047612757"/>
    <line x1="337.585185434277" y1="384.447047612757" x2="337.5" y2="383.799999999999"/>
    <line x1="337.5" y1="383.799999999999" x2="337.585185434277" y2="383.152952387244"/>
    <line x1="337.585185434277" y1="383.152952387244" x2="337.834936490539" y2="382.55"/>
    <line x1="337.834936490539" y1="382.55" x2="338.232233047034" y2="382.032233047034"/>
    <line x1="338.232233047034" y1="382.032233047034" x2="338.75" y2="381.63493649054"/>
    <line x1="338.75" y1="381.63493649054" x2="339.352952387244" y2="381.385185434277"/>
    <line x1="339.352952387244" y1="381.385185434277" x2="340.0" y2="381.3"/>
    <line x1="320.0" y1="381.299999999999" x2="320.647047612757" y2="381.385185434279"/>
    <line x1="320.647047612757" y1="381.385185434279" x2="321.25" y2="381.634936490539"/>
    <line x1="321.25" y1="381.634936490539" x2="321.767766952966" y2="382.032233047034"/>
    <line x1="321.767766952966" y1="382.032233047034" x2="322.165063509461" y2="382.549999999999"/>
    <line x1="322.165063509461" y1="382.549999999999" x2="322.414814565723" y2="383.152952387245"/>
    <line x1="322.414814565723" y1="383.152952387245" x2="322.5" y2="383.800000000001"/>
    <line x1="322.5" y1="383.800000000001" x2="322.414814565723" y2="384.447047612755"/>
    <line x1="322.414814565723" y1="384.447047612755" x2="322.165063509461" y2="385.050000000001"/>
    <line x1="322.165063509461" y1="385.050000000001" x2="321.767766952966" y2="385.567766952964"/>
    <line x1="321.767766952966" y1="385.567766952964" x2="321.25" y2="385.965063509462"/>
    <line x1="321.25" y1="385.965063509462" x2="320.647047612757" y2="386.214814565723"/>
    <line x1="320.647047612757" y1="386.214814565723" x2="320.0" y2="386.300000000001"/>
    <line x1="320.0" y1="386.300000000001" x2="319.352952387244" y2="386.214814565722"/>
    <line x1="319.352952387244" y1="386.214814565722" x2="318.75" y2="385.965063509462"/>
    <line x1="318.75" y1="385.965063509462" x2="318.232233047034" y2="385.567766952967"/>
    <line x1="318.232233047034" y1="385.567766952967" x2="317.834936490539" y2="385.05"/>
    <line x1="317.834936490539" y1="385.05" x2="317.585185434277" y2="384.447047612756"/>
    <line x1="317.585185434277" y1="384.447047612756" x2="317.5" y2="383.800000000001"/>
    <line x1="317.5" y1="383.800000000001" x2="317.585185434277" y2="383.152952387244"/>
    <line x1="317.585185434277" y1="383.152952387244" x2="317.834936490539" y2="382.55"/>
    <line x1="317.834936490539" y1="382.55" x2="318.232233047034" y2="382.032233047035"/>
    <line x1="318.232233047034" y1="382.032233047035" x2="318.75" y2="381.634936490539"/>
    <line x1="318.75" y1="381.634936490539" x2="319.352952387244" y2="381.385185434277"/>
    <line x1="319.352952387244" y1="381.385185434277" x2="320.0" y2="381.299999999999"/>
    <line x1="300.0" y1="381.3" x2="300.647047612756" y2="381.385185434277"/>
    <line x1="300.647047612756" y1="381.385185434277" x2="301.25" y2="381.634936490539"/>
    <line x1="301.25" y1="381.634936490539" x2="301.767766952966" y2="382.032233047034"/>
    <line x1="301.767766952966" y1="382.032233047034" x2="302.165063509461" y2="382.55"/>
    <line x1="302.165063509461" y1="382.55" x2="302.414814565723" y2="383.152952387245"/>
    <line x1="302.414814565723" y1="383.152952387245" x2="302.5" y2="383.800000000001"/>
    <line x1="302.5" y1="383.800000000001" x2="302.414814565723" y2="384.447047612757"/>
    <line x1="302.414814565723" y1="384.447047612757" x2="302.165063509461" y2="385.050000000001"/>
    <line x1="302.165063509461" y1="385.050000000001" x2="301.767766952966" y2="385.567766952966"/>
    <line x1="301.767766952966" y1="385.567766952966" x2="301.25" y2="385.965063509461"/>
    <line x1="301.25" y1="385.965063509461" x2="300.647047612756" y2="386.214814565723"/>
    <line x1="300.647047612756" y1="386.214814565723" x2="300.0" y2="386.300000000001"/>
    <line x1="300.0" y1="386.300000000001" x2="299.352952387244" y2="386.214814565724"/>
    <line x1="299.352952387244" y1="386.214814565724" x2="298.75" y2="385.965063509461"/>
    <line x1="298.75" y1="385.965063509461" x2="298.232233047034" y2="385.567766952965"/>
    <line x1="298.232233047034" y1="385.567766952965" x2="297.834936490539" y2="385.05"/>
    <line x1="297.834936490539" y1="385.05" x2="297.585185434277" y2="384.447047612757"/>
    <line x1="297.585185434277" y1="384.447047612757" x2="297.5" y2="383.8"/>
    <line x1="297.5" y1="383.8" x2="297.585185434277" y2="383.152952387244"/>
    <line x1="297.585185434277" y1="383.152952387244" x2="297.834936490539" y2="382.55"/>
    <line x1="297.834936490539" y1="382.55" x2="298.232233047034" y2="382.032233047034"/>
    <line x1="298.232233047034" y1="382.032233047034" x2="298.75" y2="381.634936490539"/>
    <line x1="298.75" y1="381.634936490539" x2="299.352952387244" y2="381.385185434277"/>
    <line x1="299.352952387244" y1="381.385185434277" x2="300.0" y2="381.3"/>
    <line x1="380.0" y1="17.4999999999999" x2="380.647047612756" y2="17.5851854342774"/>
    <line x1="380.647047612756" y1="17.5851854342774" x2="381.25" y2="17.834936490539"/>
    <line x1="381.25" y1="17.834936490539" x2="381.767766952966" y2="18.2322330470337"/>
    <line x1="381.767766952966" y1="18.2322330470337" x2="382.165063509461" y2="18.7500000000001"/>
    <line x1="382.165063509461" y1="18.7500000000001" x2="382.414814565723" y2="19.3529523872435"/>
    <line x1="382.414814565723" y1="19.3529523872435" x2="382.5" y2="20.0000000000001"/>
    <line x1="382.5" y1="20.0000000000001" x2="382.414814565723" y2="20.6470476127562"/>
    <line x1="382.414814565723" y1="20.6470476127562" x2="382.165063509461" y2="21.2500000000001"/>
    <line x1="382.165063509461" y1="21.2500000000001" x2="381.767766952966" y2="21.7677669529664"/>
    <line x1="381.767766952966" y1="21.7677669529664" x2="381.25" y2="22.1650635094611"/>
    <line x1="381.25" y1="22.1650635094611" x2="380.647047612756" y2="22.4148145657228"/>
    <line x1="380.647047612756" y1="22.4148145657228" x2="380.0" y2="22.5000000000001"/>
    <line x1="380.0" y1="22.5000000000001" x2="379.352952387244" y2="22.4148145657228"/>
    <line x1="379.352952387244" y1="22.4148145657228" x2="378.75" y2="22.1650635094612"/>
    <line x1="378.75" y1="22.1650635094612" x2="378.232233047034" y2="21.7677669529664"/>
    <line x1="378.232233047034" y1="21.7677669529664" x2="377.834936490539" y2="21.2500000000001"/>
    <line x1="377.834936490539" y1="21.2500000000001" x2="377.585185434277" y2="20.6470476127564"/>
    <line x1="377.585185434277" y1="20.6470476127564" x2="377.5" y2="19.9999999999999"/>
    <line x1="377.5" y1="19.9999999999999" x2="377.585185434277" y2="19.3529523872436"/>
    <line x1="377.585185434277" y1="19.3529523872436" x2="377.834936490539" y2="18.7500000000001"/>
    <line x1="377.834936490539" y1="18.7500000000001" x2="378.232233047034" y2="18.2322330470336"/>
    <line x1="378.232233047034" y1="18.2322330470336" x2="378.75" y2="17.8349364905387"/>
    <line x1="378.75" y1="17.8349364905387" x2="379.352952387244" y2="17.5851854342773"/>
    <line x1="379.352952387244" y1="17.5851854342773" x2="380.0" y2="17.4999999999999"/>
    <line x1="360.0" y1="17.4999999999999" x2="360.647047612756" y2="17.5851854342773"/>
    <line x1="360.647047612756" y1="17.5851854342773" x2="361.25" y2="17.834936490539"/>
    <line x1="361.25" y1="17.834936490539" x2="361.767766952967" y2="18.2322330470338"/>
    <line x1="361.767766952967" y1="18.2322330470338" x2="362.165063509461" y2="18.7499999999999"/>
    <line x1="362.165063509461" y1="18.7499999999999" x2="362.414814565723" y2="19.3529523872437"/>
    <line x1="362.414814565723" y1="19.3529523872437" x2="362.5" y2="19.9999999999999"/>
    <line x1="362.5" y1="19.9999999999999" x2="362.414814565723" y2="20.6470476127562"/>
    <line x1="362.414814565723" y1="20.6470476127562" x2="362.165063509461" y2="21.25"/>
    <line x1="362.165063509461" y1="21.25" x2="361.767766952966" y2="21.7677669529664"/>
    <line x1="361.767766952966" y1="21.7677669529664" x2="361.25" y2="22.1650635094611"/>
    <line x1="361.25" y1="22.1650635094611" x2="360.647047612757" y2="22.4148145657227"/>
    <line x1="360.647047612757" y1="22.4148145657227" x2="360.0" y2="22.5000000000002"/>
    <line x1="360.0" y1="22.5000000000002" x2="359.352952387244" y2="22.4148145657227"/>
    <line x1="359.352952387244" y1="22.4148145657227" x2="358.75" y2="22.1650635094611"/>
    <line x1="358.75" y1="22.1650635094611" x2="358.232233047034" y2="21.7677669529664"/>
    <line x1="358.232233047034" y1="21.7677669529664" x2="357.834936490539" y2="21.2500000000001"/>
    <line x1="357.834936490539" y1="21.2500000000001" x2="357.585185434277" y2="20.6470476127564"/>
    <line x1="357.585185434277" y1="20.6470476127564" x2="357.5" y2="20.0"/>
    <line x1="357.5" y1="20.0" x2="357.585185434277" y2="19.3529523872435"/>
    <line x1="357.585185434277" y1="19.3529523872435" x2="357.834936490539" y2="18.75"/>
    <line x1="357.834936490539" y1="18.75" x2="358.232233047034" y2="18.2322330470336"/>
    <line x1="358.232233047034" y1="18.2322330470336" x2="358.75" y2="17.8349364905388"/>
    <line x1="358.75" y1="17.8349364905388" x2="359.352952387244" y2="17.5851854342773"/>
    <line x1="359.352952387244" y1="17.5851854342773" x2="360.0" y2="17.4999999999999"/>
    <line x1="340.0" y1="17.4999999999999" x2="340.647047612756" y2="17.5851854342773"/>
    <line x1="340.647047612756" y1="17.5851854342773" x2="341.25" y2="17.8349364905389"/>
    <line x1="341.25" y1="17.8349364905389" x2="341.767766952966" y2="18.2322330470337"/>
    <line x1="341.767766952966" y1="18.2322330470337" x2="342.165063509461" y2="18.7500000000001"/>
    <line x1="342.165063509461" y1="18.7500000000001" x2="342.414814565723" y2="19.3529523872436"/>
    <line x1="342.414814565723" y1="19.3529523872436" x2="342.5" y2="19.9999999999998"/>
    <line x1="342.5" y1="19.9999999999998" x2="342.414814565723" y2="20.6470476127564"/>
    <line x1="342.414814565723" y1="20.6470476127564" x2="342.165063509461" y2="21.2499999999999"/>
    <line x1="342.165063509461" y1="21.2499999999999" x2="341.767766952966" y2="21.7677669529663"/>
    <line x1="341.767766952966" y1="21.7677669529663" x2="341.25" y2="22.1650635094612"/>
    <line x1="341.25" y1="22.1650635094612" x2="340.647047612756" y2="22.4148145657227"/>
    <line x1="340.647047612756" y1="22.4148145657227" x2="340.0" y2="22.5000000000001"/>
    <line x1="340.0" y1="22.5000000000001" x2="339.352952387244" y2="22.4148145657227"/>
    <line x1="339.352952387244" y1="22.4148145657227" x2="338.75" y2="22.1650635094612"/>
    <line x1="338.75" y1="22.1650635094612" x2="338.232233047034" y2="21.7677669529664"/>
    <line x1="338.232233047034" y1="21.7677669529664" x2="337.834936490539" y2="21.2500000000001"/>
    <line x1="337.834936490539" y1="21.2500000000001" x2="337.585185434277" y2="20.6470476127562"/>
    <line x1="337.585185434277" y1="20.6470476127562" x2="337.5" y2="19.9999999999999"/>
    <line x1="337.5" y1="19.9999999999999" x2="337.585185434277" y2="19.3529523872436"/>
    <line x1="337.585185434277" y1="19.3529523872436" x2="337.834936490539" y2="18.7500000000001"/>
    <line x1="337.834936490539" y1="18.7500000000001" x2="338.232233047034" y2="18.2322330470335"/>
    <line x1="338.232233047034" y1="18.2322330470335" x2="338.75" y2="17.8349364905388"/>
    <line x1="338.75" y1="17.8349364905388" x2="339.352952387244" y2="17.5851854342773"/>
    <line x1="339.352952387244" y1="17.5851854342773" x2="340.0" y2="17.4999999999999"/>
    <line x1="320.0" y1="17.4999999999998" x2="320.647047612756" y2="17.5851854342773"/>
    <line x1="320.647047612756" y1="17.5851854342773" x2="321.25" y2="17.8349364905389"/>
    <line x1="321.25" y1="17.8349364905389" x2="321.767766952966" y2="18.2322330470338"/>
    <line x1="321.767766952966" y1="18.2322330470338" x2="322.165063509461" y2="18.7500000000001"/>
    <line x1="322.165063509461" y1="18.7500000000001" x2="322.414814565723" y2="19.3529523872435"/>
    <line x1="322.414814565723" y1="19.3529523872435" x2="322.5" y2="20.0000000000001"/>
    <line x1="322.5" y1="20.0000000000001" x2="322.414814565723" y2="20.6470476127562"/>
    <line x1="322.414814565723" y1="20.6470476127562" x2="322.165063509461" y2="21.25"/>
    <line x1="322.165063509461" y1="21.25" x2="321.767766952966" y2="21.7677669529664"/>
    <line x1="321.767766952966" y1="21.7677669529664" x2="321.25" y2="22.1650635094612"/>
    <line x1="321.25" y1="22.1650635094612" x2="320.647047612757" y2="22.4148145657227"/>
    <line x1="320.647047612757" y1="22.4148145657227" x2="320.0" y2="22.5000000000001"/>
    <line x1="320.0" y1="22.5000000000001" x2="319.352952387244" y2="22.4148145657227"/>
    <line x1="319.352952387244" y1="22.4148145657227" x2="318.75" y2="22.1650635094612"/>
    <line x1="318.75" y1="22.1650635094612" x2="318.232233047034" y2="21.7677669529664"/>
    <line x1="318.232233047034" y1="21.7677669529664" x2="317.834936490539" y2="21.2499999999999"/>
    <line x1="317.834936490539" y1="21.2499999999999" x2="317.585185434277" y2="20.6470476127564"/>
    <line x1="317.585185434277" y1="20.6470476127564" x2="317.5" y2="19.9999999999999"/>
    <line x1="317.5" y1="19.9999999999999" x2="317.585185434277" y2="19.3529523872436"/>
    <line x1="317.585185434277" y1="19.3529523872436" x2="317.834936490539" y2="18.75"/>
    <line x1="317.834936490539" y1="18.75" x2="318.232233047034" y2="18.2322330470336"/>
    <line x1="318.232233047034" y1="18.2322330470336" x2="318.75" y2="17.8349364905388"/>
    <line x1="318.75" y1="17.8349364905388" x2="319.352952387244" y2="17.5851854342773"/>
    <line x1="319.352952387244" y1="17.5851854342773" x2="320.0" y2="17.4999999999998"/>
    <line x1="300.0" y1="17.4999999999999" x2="300.647047612756" y2="17.5851854342773"/>
    <line x1="300.647047612756" y1="17.5851854342773" x2="301.25" y2="17.8349364905389"/>
    <line x1="301.25" y1="17.8349364905389" x2="301.767766952966" y2="18.2322330470338"/>
    <line x1="301.767766952966" y1="18.2322330470338" x2="302.165063509461" y2="18.75"/>
    <line x1="302.165063509461" y1="18.75" x2="302.414814565723" y2="19.3529523872435"/>
    <line x1="302.414814565723" y1="19.3529523872435" x2="302.5" y2="19.9999999999999"/>
    <line x1="302.5" y1="19.9999999999999" x2="302.414814565723" y2="20.6470476127564"/>
    <line x1="302.414814565723" y1="20.6470476127564" x2="302.165063509461" y2="21.25"/>
    <line x1="302.165063509461" y1="21.25" x2="301.767766952966" y2="21.7677669529664"/>
    <line x1="301.767766952966" y1="21.7677669529664" x2="301.25" y2="22.1650635094611"/>
    <line x1="301.25" y1="22.1650635094611" x2="300.647047612756" y2="22.4148145657227"/>
    <line x1="300.647047612756" y1="22.4148145657227" x2="300.0" y2="22.5000000000002"/>
    <line x1="300.0" y1="22.5000000000002" x2="299.352952387244" y2="22.4148145657227"/>
    <line x1="299.352952387244" y1="22.4148145657227" x2="298.75" y2="22.1650635094612"/>
    <line x1="298.75" y1="22.1650635094612" x2="298.232233047034" y2="21.7677669529664"/>
    <line x1="298.232233047034" y1="21.7677669529664" x2="297.834936490539" y2="21.2500000000001"/>
    <line x1="297.834936490539" y1="21.2500000000001" x2="297.585185434277" y2="20.6470476127564"/>
    <line x1="297.585185434277" y1="20.6470476127564" x2="297.5" y2="20.0"/>
    <line x1="297.5" y1="20.0" x2="297.585185434277" y2="19.3529523872435"/>
    <line x1="297.585185434277" y1="19.3529523872435" x2="297.834936490539" y2="18.7500000000001"/>
    <line x1="297.834936490539" y1="18.7500000000001" x2="298.232233047034" y2="18.2322330470336"/>
    <line x1="298.232233047034" y1="18.2322330470336" x2="298.75" y2="17.8349364905387"/>
    <line x1="298.75" y1="17.8349364905387" x2="299.352952387244" y2="17.5851854342772"/>
    <line x1="299.352952387244" y1="17.5851854342772" x2="300.0" y2="17.4999999999999"/>
  </g>
</svg>
